<svg width="81" height="14" viewBox="0 0 81 14" fill="none" xmlns="http://www.w3.org/2000/svg">
<circle cx="7" cy="7" r="7" fill="#04151F"/>
<path d="M19.8409 2H21.8155V9.44141L21.6105 11H19.8409V2ZM25.7062 7.75977V7.88281C25.7062 8.36328 25.6573 8.80078 25.5597 9.19531C25.462 9.58984 25.3116 9.93164 25.1085 10.2207C24.9054 10.5059 24.6495 10.7266 24.3409 10.8828C24.0323 11.0391 23.6671 11.1172 23.2452 11.1172C22.8624 11.1172 22.5343 11.0352 22.2609 10.8711C21.9874 10.7031 21.7589 10.4727 21.5753 10.1797C21.3917 9.88281 21.2433 9.54102 21.13 9.1543C21.0167 8.76367 20.9269 8.3457 20.8605 7.90039V7.75391C20.9269 7.3125 21.0167 6.89844 21.13 6.51172C21.2433 6.12109 21.3917 5.7793 21.5753 5.48633C21.7589 5.18945 21.9855 4.95898 22.255 4.79492C22.5284 4.62695 22.8546 4.54297 23.2335 4.54297C23.6593 4.54297 24.0265 4.62305 24.3351 4.7832C24.6476 4.94336 24.9054 5.16797 25.1085 5.45703C25.3116 5.74609 25.462 6.08594 25.5597 6.47656C25.6573 6.86719 25.7062 7.29492 25.7062 7.75977ZM23.7316 7.88281V7.75977C23.7316 7.5293 23.7179 7.3125 23.6905 7.10938C23.6632 6.90625 23.6144 6.72656 23.5441 6.57031C23.4737 6.41406 23.3741 6.29102 23.2452 6.20117C23.1163 6.11133 22.9484 6.06641 22.7413 6.06641C22.5304 6.06641 22.3527 6.10156 22.2081 6.17188C22.0675 6.24219 21.9542 6.34375 21.8683 6.47656C21.7862 6.60547 21.7277 6.76562 21.6925 6.95703C21.6573 7.14453 21.6417 7.35742 21.6456 7.5957V8.05859C21.6378 8.38281 21.6671 8.66016 21.7335 8.89062C21.7999 9.12109 21.9152 9.29688 22.0792 9.41797C22.2433 9.53906 22.4679 9.59961 22.753 9.59961C22.964 9.59961 23.1339 9.55859 23.2628 9.47656C23.3956 9.39453 23.4952 9.27734 23.5616 9.125C23.628 8.97266 23.673 8.79102 23.6964 8.58008C23.7198 8.36914 23.7316 8.13672 23.7316 7.88281ZM29.031 4.66016V11H27.0505V4.66016H29.031ZM26.9334 3.02539C26.9334 2.74414 27.0349 2.51367 27.238 2.33398C27.4412 2.1543 27.7048 2.06445 28.0291 2.06445C28.3533 2.06445 28.617 2.1543 28.8201 2.33398C29.0232 2.51367 29.1248 2.74414 29.1248 3.02539C29.1248 3.30664 29.0232 3.53711 28.8201 3.7168C28.617 3.89648 28.3533 3.98633 28.0291 3.98633C27.7048 3.98633 27.4412 3.89648 27.238 3.7168C27.0349 3.53711 26.9334 3.30664 26.9334 3.02539ZM32.602 6.23047V11H30.6273V4.66016H32.473L32.602 6.23047ZM34.477 4.61328L34.4418 6.44727C34.3637 6.43945 34.2582 6.42969 34.1254 6.41797C33.9926 6.40625 33.8812 6.40039 33.7914 6.40039C33.5609 6.40039 33.3617 6.42773 33.1937 6.48242C33.0297 6.5332 32.893 6.61133 32.7836 6.7168C32.6781 6.81836 32.6 6.94727 32.5492 7.10352C32.5023 7.25977 32.4809 7.44141 32.4848 7.64844L32.1273 7.41406C32.1273 6.98828 32.1684 6.60156 32.2504 6.25391C32.3363 5.90234 32.4574 5.59961 32.6137 5.3457C32.7699 5.08789 32.9594 4.89062 33.182 4.75391C33.4047 4.61328 33.6547 4.54297 33.932 4.54297C34.0297 4.54297 34.1254 4.54883 34.2191 4.56055C34.3168 4.57227 34.4027 4.58984 34.477 4.61328ZM39.1495 4.66016V6.03125H35.3291V4.66016H39.1495ZM36.1319 3.08398H38.1065V8.93164C38.1065 9.09961 38.126 9.23047 38.1651 9.32422C38.2041 9.41406 38.2705 9.47852 38.3643 9.51758C38.462 9.55273 38.5909 9.57031 38.751 9.57031C38.8643 9.57031 38.958 9.56836 39.0323 9.56445C39.1065 9.55664 39.1768 9.54688 39.2432 9.53516V10.9473C39.0752 11.002 38.8995 11.043 38.7159 11.0703C38.5323 11.1016 38.337 11.1172 38.1299 11.1172C37.708 11.1172 37.3467 11.0508 37.0459 10.918C36.7491 10.7852 36.5225 10.5762 36.3662 10.291C36.21 10.0059 36.1319 9.63477 36.1319 9.17773V3.08398ZM42.2282 2V11H40.2536V2H42.2282ZM41.9938 7.61328L41.5309 7.625C41.5309 7.17969 41.5856 6.76953 41.695 6.39453C41.8044 6.01953 41.9606 5.69336 42.1637 5.41602C42.3669 5.13867 42.611 4.92383 42.8962 4.77148C43.1813 4.61914 43.4977 4.54297 43.8454 4.54297C44.1579 4.54297 44.443 4.58789 44.7009 4.67773C44.9626 4.76758 45.1872 4.91211 45.3747 5.11133C45.5661 5.31055 45.7126 5.57031 45.8141 5.89062C45.9196 6.21094 45.9723 6.60156 45.9723 7.0625V11H43.986V7.05078C43.986 6.79297 43.9489 6.59375 43.8747 6.45312C43.8044 6.30859 43.7028 6.20898 43.57 6.1543C43.4372 6.0957 43.2751 6.06641 43.0837 6.06641C42.8532 6.06641 42.6657 6.10547 42.5212 6.18359C42.3766 6.26172 42.2653 6.37109 42.1872 6.51172C42.113 6.64844 42.0622 6.81055 42.0348 6.99805C42.0075 7.18555 41.9938 7.39062 41.9938 7.61328ZM51.0726 9.54688V2H53.0589V11H51.2777L51.0726 9.54688ZM47.182 7.90625V7.7832C47.182 7.30273 47.2347 6.86523 47.3402 6.4707C47.4456 6.07227 47.6019 5.73047 47.8089 5.44531C48.0159 5.15625 48.2738 4.93359 48.5823 4.77734C48.8909 4.62109 49.2464 4.54297 49.6488 4.54297C50.0081 4.54297 50.3226 4.62695 50.5921 4.79492C50.8616 4.95898 51.0921 5.18945 51.2835 5.48633C51.4749 5.7832 51.6312 6.13086 51.7523 6.5293C51.8734 6.92383 51.9652 7.34961 52.0277 7.80664V7.95312C51.9652 8.38281 51.8734 8.78906 51.7523 9.17188C51.6312 9.55078 51.4749 9.88672 51.2835 10.1797C51.0921 10.4727 50.8597 10.7031 50.5863 10.8711C50.3167 11.0352 50.0003 11.1172 49.637 11.1172C49.2347 11.1172 48.8792 11.0371 48.5706 10.877C48.2659 10.7168 48.0101 10.4922 47.803 10.2031C47.5999 9.91406 47.4456 9.57422 47.3402 9.18359C47.2347 8.79297 47.182 8.36719 47.182 7.90625ZM49.1566 7.7832V7.90625C49.1566 8.14453 49.1722 8.36523 49.2034 8.56836C49.2347 8.77148 49.2874 8.95117 49.3616 9.10742C49.4398 9.25977 49.5413 9.37891 49.6663 9.46484C49.7952 9.55078 49.9534 9.59375 50.1409 9.59375C50.3948 9.59375 50.6038 9.5332 50.7679 9.41211C50.9359 9.29102 51.0589 9.11914 51.137 8.89648C51.2191 8.67383 51.2542 8.41211 51.2425 8.11133V7.64844C51.2503 7.39062 51.2327 7.16406 51.1898 6.96875C51.1468 6.76953 51.0784 6.60352 50.9847 6.4707C50.8948 6.33789 50.7796 6.23828 50.639 6.17188C50.5023 6.10156 50.3402 6.06641 50.1527 6.06641C49.9691 6.06641 49.8128 6.10938 49.6839 6.19531C49.5589 6.28125 49.4573 6.40234 49.3792 6.55859C49.3011 6.71094 49.2445 6.89258 49.2093 7.10352C49.1741 7.31055 49.1566 7.53711 49.1566 7.7832ZM57.831 9.40625V6.79297C57.831 6.61328 57.8056 6.45898 57.7548 6.33008C57.7041 6.20117 57.624 6.10156 57.5146 6.03125C57.4052 5.95703 57.2588 5.91992 57.0752 5.91992C56.9267 5.91992 56.7998 5.94531 56.6943 5.99609C56.5888 6.04688 56.5088 6.12305 56.4541 6.22461C56.3994 6.32617 56.372 6.45508 56.372 6.61133H54.3974C54.3974 6.31836 54.4619 6.04688 54.5908 5.79688C54.7236 5.54297 54.9111 5.32227 55.1533 5.13477C55.3994 4.94727 55.6923 4.80273 56.0322 4.70117C56.3759 4.5957 56.7588 4.54297 57.1806 4.54297C57.6845 4.54297 58.1338 4.62695 58.5283 4.79492C58.9267 4.96289 59.2412 5.21484 59.4716 5.55078C59.7021 5.88281 59.8173 6.30078 59.8173 6.80469V9.40039C59.8173 9.81445 59.8408 10.1289 59.8877 10.3438C59.9345 10.5547 60.0009 10.7402 60.0869 10.9004V11H58.1064C58.0127 10.8047 57.9423 10.5664 57.8955 10.2852C57.8525 10 57.831 9.70703 57.831 9.40625ZM58.0713 7.12695L58.083 8.18164H57.2099C57.0263 8.18164 56.8701 8.20703 56.7412 8.25781C56.6162 8.30859 56.5146 8.37891 56.4365 8.46875C56.3623 8.55469 56.3076 8.65234 56.2724 8.76172C56.2412 8.87109 56.2255 8.98633 56.2255 9.10742C56.2255 9.22461 56.2529 9.33008 56.3076 9.42383C56.3662 9.51367 56.4443 9.58398 56.542 9.63477C56.6396 9.68555 56.749 9.71094 56.8701 9.71094C57.0888 9.71094 57.2744 9.66992 57.4267 9.58789C57.583 9.50195 57.7021 9.39844 57.7841 9.27734C57.8662 9.15625 57.9072 9.04297 57.9072 8.9375L58.3408 9.74609C58.2627 9.90234 58.1728 10.0605 58.0713 10.2207C57.9736 10.3809 57.8505 10.5293 57.7021 10.666C57.5576 10.7988 57.3798 10.9082 57.1689 10.9941C56.958 11.0762 56.7021 11.1172 56.4013 11.1172C56.0107 11.1172 55.6513 11.0371 55.3232 10.877C54.999 10.7168 54.7392 10.4941 54.5439 10.209C54.3486 9.91992 54.2509 9.58789 54.2509 9.21289C54.2509 8.88477 54.3095 8.5918 54.4267 8.33398C54.5478 8.07617 54.7295 7.85742 54.9716 7.67773C55.2138 7.49805 55.5224 7.36133 55.8974 7.26758C56.2724 7.17383 56.7138 7.12695 57.2216 7.12695H58.0713ZM64.6129 4.66016V6.03125H60.7926V4.66016H64.6129ZM61.5953 3.08398H63.5699V8.93164C63.5699 9.09961 63.5895 9.23047 63.6285 9.32422C63.6676 9.41406 63.734 9.47852 63.8277 9.51758C63.9254 9.55273 64.0543 9.57031 64.2145 9.57031C64.3277 9.57031 64.4215 9.56836 64.4957 9.56445C64.5699 9.55664 64.6402 9.54688 64.7066 9.53516V10.9473C64.5387 11.002 64.3629 11.043 64.1793 11.0703C63.9957 11.1016 63.8004 11.1172 63.5934 11.1172C63.1715 11.1172 62.8102 11.0508 62.5094 10.918C62.2125 10.7852 61.9859 10.5762 61.8297 10.291C61.6734 10.0059 61.5953 9.63477 61.5953 9.17773V3.08398ZM68.8284 11.1172C68.3127 11.1172 67.8518 11.0371 67.4455 10.877C67.0393 10.7129 66.6955 10.4883 66.4143 10.2031C66.137 9.91797 65.9241 9.58984 65.7756 9.21875C65.6311 8.84766 65.5588 8.45508 65.5588 8.04102V7.81836C65.5588 7.35352 65.6233 6.92383 65.7522 6.5293C65.8811 6.13086 66.0725 5.7832 66.3264 5.48633C66.5803 5.18945 66.8987 4.95898 67.2815 4.79492C67.6643 4.62695 68.1096 4.54297 68.6174 4.54297C69.0666 4.54297 69.469 4.61523 69.8245 4.75977C70.1799 4.9043 70.4807 5.11133 70.7268 5.38086C70.9768 5.65039 71.1663 5.97656 71.2952 6.35938C71.428 6.74219 71.4944 7.17188 71.4944 7.64844V8.45117H66.3147V7.21484H69.5666V7.0625C69.5705 6.85156 69.5334 6.67188 69.4553 6.52344C69.3811 6.375 69.2717 6.26172 69.1272 6.18359C68.9827 6.10547 68.8069 6.06641 68.5998 6.06641C68.385 6.06641 68.2073 6.11328 68.0666 6.20703C67.9299 6.30078 67.8225 6.42969 67.7444 6.59375C67.6702 6.75391 67.6174 6.93945 67.5862 7.15039C67.5549 7.36133 67.5393 7.58398 67.5393 7.81836V8.04102C67.5393 8.27539 67.5705 8.48828 67.633 8.67969C67.6995 8.87109 67.7932 9.03516 67.9143 9.17188C68.0393 9.30469 68.1877 9.4082 68.3596 9.48242C68.5354 9.55664 68.7346 9.59375 68.9573 9.59375C69.2268 9.59375 69.4924 9.54297 69.7541 9.44141C70.0159 9.33984 70.2405 9.17188 70.428 8.9375L71.3245 10.0039C71.1955 10.1875 71.012 10.3652 70.7737 10.5371C70.5393 10.709 70.258 10.8496 69.9299 10.959C69.6018 11.0645 69.2346 11.1172 68.8284 11.1172ZM72.786 10.0742C72.786 9.79297 72.8876 9.55859 73.0907 9.37109C73.2938 9.17969 73.5555 9.08398 73.8759 9.08398C74.2001 9.08398 74.4618 9.17969 74.661 9.37109C74.8641 9.55859 74.9657 9.79297 74.9657 10.0742C74.9657 10.3555 74.8641 10.5918 74.661 10.7832C74.4618 10.9707 74.2001 11.0645 73.8759 11.0645C73.5555 11.0645 73.2938 10.9707 73.0907 10.7832C72.8876 10.5918 72.786 10.3555 72.786 10.0742Z" fill="#04151F"/>
</svg>
